<?xml version="1.0" encoding="UTF-8"?>
<svg width="200px" height="100px" viewBox="0 0 118 26" version="1.1" xmlns="http://www.w3.org/2000/svg" xmlns:xlink="http://www.w3.org/1999/xlink">
    <title>192x72</title>
    <desc>Created with Sketch.</desc>
    <g id="Page-1" stroke="none" stroke-width="1" fill="none" fill-rule="evenodd">
        <g id="Fabros-V2-Copy-5" transform="translate(-100.000000, -29.000000)" fill-rule="nonzero">
            <g id="Group-8" transform="translate(100.000000, 29.000000)">
                <g id="192x72">
                    <polygon id="Path" fill="#fff" points="14.1065162 14.5235034 5.35472759 14.5235034 5.35472759 10.3645112 15.9450972 10.3645112 17.7716036 6.2327689 0 6.2327689 0 25.1367164 5.35472759 25.1367164 5.35472759 18.6552445 12.2800116 18.6552445"></polygon>
                    <path d="M66.9626624,20.1135548 L64.04194,20.1135548 L64.04194,25.1367164 L58.6868013,25.1367164 L58.6868013,6.2327689 L67.3412678,6.2327689 C69.0538248,6.2327689 70.5415235,6.51631748 71.8035391,7.08341648 C73.0655547,7.65051362 74.0389913,8.46059562 74.7246738,9.5138649 C75.4095315,10.5671342 75.7523731,11.8052022 75.7523731,13.2272499 C75.7523731,14.5956188 75.4317304,15.7886145 74.7920897,16.8054151 C74.1520415,17.8228322 73.2369751,18.6193924 72.046901,19.1955035 L76.1309785,25.1367164 L70.3972343,25.1367158 L66.9626624,20.1135548 Z M69.5047836,11.1747975 C68.945712,10.6886266 68.1161527,10.4456424 67.0165126,10.4456424 L64.04194,10.4456424 L64.04194,15.9818143 L67.0165126,15.9818143 C68.1161527,15.9818143 68.9457126,15.743338 69.5047836,15.2661798 C70.0634384,14.7892271 70.3433835,14.1094472 70.3433835,13.2272505 C70.3433841,12.3452562 70.0634384,11.6607648 69.5047836,11.1747975 Z" id="Shape" fill="#fff"></path>
                    <path d="M83.2722634,24.2455033 C81.6764475,23.3995673 80.4230652,22.2293147 79.5129312,20.7347394 C78.6023904,19.240577 78.1473234,17.5573122 78.1473234,15.684742 C78.1473234,13.8123768 78.6023904,12.1293163 79.5129312,10.6347435 C80.4230646,9.1403749 81.6764469,7.97032538 83.2722634,7.12398205 C84.8680699,6.27784176 86.6665508,5.85456795 88.6676867,5.85456795 C90.6688226,5.85456795 92.4672935,6.27784176 94.06311,7.12398205 C95.6589165,7.97032538 96.9118915,9.1403749 97.8224323,10.6347435 C98.7325656,12.1293163 99.188045,13.8123774 99.188045,15.684742 C99.188045,17.5573122 98.7325663,19.240577 97.8224323,20.7347394 C96.9118915,22.2293147 95.6589165,23.3995673 94.06311,24.2455033 C92.4672941,25.0920509 90.6688226,25.5149168 88.6676867,25.5149168 C86.6665508,25.5149168 84.8680705,25.0920515 83.2722634,24.2455033 Z M91.2640612,20.4106265 C92.0389461,19.960923 92.6522846,19.326216 93.103234,18.5067096 C93.553368,17.6878192 93.7790517,16.7472302 93.7790517,15.684742 C93.7790517,14.6226619 93.5533686,13.6820753 93.103234,12.8625702 C92.6522846,12.0436791 92.0389461,11.4089709 91.2640612,10.9586533 C90.4883615,10.5089499 89.6230327,10.2835856 88.6676867,10.2835856 C87.711924,10.2835856 86.8461878,10.5089499 86.0713029,10.9586533 C85.2960106,11.4089709 84.6826721,12.0436785 84.2325468,12.8625702 C83.781588,13.6820753 83.5563124,14.6226619 83.5563124,15.684742 C83.5563124,16.7472308 83.781588,17.6878198 84.2325468,18.5067096 C84.6826714,19.326216 85.2960106,19.9609224 86.0713029,20.4106265 C86.8461878,20.860944 87.711924,21.0858985 88.6676867,21.0858985 C89.6230327,21.0858985 90.4883615,20.860944 91.2640612,20.4106265 Z" id="Shape" fill="#fff"></path>
                    <path d="M104.612239,24.947819 C103.169762,24.5696162 101.997774,24.0658253 101.096691,23.4354213 L102.85446,19.4925751 C103.701698,20.050862 104.684185,20.5009765 105.802319,20.8427106 C106.920045,21.1850588 108.020097,21.3559264 109.101652,21.3559264 C111.15705,21.3559264 112.184749,20.8427106 112.184749,19.816688 C112.184749,19.2764291 111.891651,18.8761015 111.30586,18.6148839 C110.719662,18.3540772 109.777877,18.0793383 108.47968,17.7910745 C107.055294,17.4851944 105.865215,17.1565736 104.909869,16.8054145 C103.954106,16.4544634 103.133592,15.8918717 102.448733,15.1176443 C101.763458,14.34362 101.421025,13.2993652 101.421025,11.9848789 C101.421025,10.833064 101.736327,9.79331662 102.367748,8.8658409 C102.998343,7.938775 103.940535,7.20490767 105.193918,6.66485362 C106.446893,6.12459467 107.983509,5.85456733 109.805008,5.85456733 C111.048933,5.85456733 112.274777,5.99429257 113.482937,6.27313019 C114.69069,6.55258067 115.754978,6.96192405 116.674152,7.5019781 L115.02449,11.4718692 C113.221489,10.4995255 111.472343,10.0135589 109.777877,10.0135589 C108.713996,10.0135589 107.938704,10.1713127 107.451981,10.486208 C106.965267,10.8013081 106.721901,11.211062 106.721901,11.7148528 C106.721901,12.2190535 107.010072,12.597255 107.58723,12.849049 C108.16397,13.1014557 109.092602,13.3622636 110.372708,13.6322915 C111.815185,13.9385827 113.009784,14.266998 113.956497,14.6179515 C114.902812,14.9691106 115.722909,15.5273975 116.417225,16.2924054 C117.111133,17.0578243 117.458494,18.0975724 117.458494,19.4114446 C117.458494,20.5456395 117.142784,21.5718651 116.512189,22.490122 C115.880769,23.4083782 114.934046,24.1422461 113.672448,24.690905 C112.410016,25.2399723 110.877513,25.5149174 109.074928,25.5149174 C107.542007,25.5149168 106.054725,25.3256114 104.612239,24.947819 Z" id="Path" fill="#fff"></path>
                    <polygon id="Path" fill="#4B97D2" points="37.8898559 25.1367164 37.9811668 25.1367164 37.8898559 24.9259499"></polygon>
                    <path d="M54.5612021,17.0483993 C53.9478729,16.2475368 53.1010471,15.6576983 52.0190852,15.279701 C52.8305538,14.8656461 53.4562221,14.3032599 53.8985426,13.5917253 C54.340044,12.880803 54.5612021,12.0752295 54.5612021,11.1747975 C54.5612021,9.66239981 53.9297822,8.46059562 52.6677666,7.56958738 C51.405751,6.67837548 49.5665832,6.23276952 47.1510772,6.23276952 L37.4689095,6.23276952 L37.4689095,15.0200217 L37.4689095,24.9259499 L37.5602204,25.1367164 L41.8519972,25.1367164 L47.6920581,25.1367164 C50.2160887,25.1367164 52.1448763,24.6868075 53.4792402,23.7863755 C54.8136041,22.886352 55.4803761,21.6083338 55.4803761,19.9517042 C55.4803761,18.8173031 55.1737115,17.849876 54.5612021,17.0483993 Z M42.7695795,10.0944845 L46.4473091,10.0944845 C48.2503056,10.0944845 49.1522131,10.6978461 49.1522131,11.9039527 C49.1522131,13.1284988 48.250305,13.7402602 46.4473091,13.7402602 L42.7695795,13.7402602 L42.7695795,10.0944845 Z M47.2587783,21.2747959 L42.7695795,21.2747959 L42.7695795,17.4401246 L47.2587783,17.4401246 C49.1341274,17.4401246 50.0713878,18.0793396 50.0713878,19.3575633 C50.0713878,20.6359895 49.1341274,21.2747959 47.2587783,21.2747959 Z" id="Shape" fill="#fff"></path>
                    <polygon id="Path" fill="#F2AA38" points="18.3078304 19.2044326 22.4894051 21.1860016 24.5261609 9.23338619 26.7333136 21.0665508 30.7444889 19.2044326 28.6397601 23.1905081 35.5333394 25.1367071 27.1495692 6.23276086 24.5261609 0.237463571 13.5189811 25.1367071 20.412561 23.1905081"></polygon>
                </g>
            </g>
        </g>
    </g>
</svg>
