<?xml version="1.0" standalone="no"?><svg xmlns:xlink="http://www.w3.org/1999/xlink" xmlns="http://www.w3.org/2000/svg" viewBox="0 0 1000 600" preserveAspectRatio="xMaxYMax slice"><g transform="scale(0.7547169811320755)"><rect x="0" y="0" width="1325" height="795" fill="#000000"/><rect x="0" y="0" width="265" height="265" fill="#000000"/><rect x="0" y="0" width="132.5" height="132.5" fill="#000000"/><circle cx="66.25" cy="66.25" r="66.25" fill="#000000"/><rect x="132.5" y="0" width="132.5" height="132.5" fill="#000000"/><rect x="132.5" y="0" width="132.5" height="132.5" fill="#000000"/><rect x="0" y="132.5" width="132.5" height="132.5" fill="#151515"/><circle cx="66.25" cy="198.75" r="66.25" fill="#000000"/><rect x="132.5" y="132.5" width="132.5" height="132.5" fill="#000000"/><rect x="132.5" y="132.5" width="132.5" height="132.5" fill="#090909"/><rect x="265" y="0" width="265" height="265" fill="#000000"/><rect x="265" y="0" width="132.5" height="132.5" fill="#0b0b0b"/><path d="M 265 132.5 A 132.5 132.5 0 0 1  397.5 0 L 397.5 132.5" fill="#080808"/><rect x="397.5" y="0" width="132.5" height="132.5" fill="#000000"/><path d="M 397.5 0 A 132.5 132.5 0 0 1 530 132.5 L 397.5 132.5" fill="#030303"/><rect x="265" y="132.5" width="132.5" height="132.5" fill="#000000"/><path d="M 265 132.5 A 132.5 132.5 0 0 0 397.5 265 L 397.5 132.5" fill="#171717"/><rect x="397.5" y="132.5" width="132.5" height="132.5" fill="#0b0b0b"/><path d="M 397.5 265 A 132.5 132.5 0 0 0 530 132.5 L 397.5 132.5" fill="#0a0a0a"/><rect x="530" y="0" width="265" height="265" fill="#000000"/><rect x="530" y="0" width="265" height="265" fill="#191919"/><rect x="795" y="0" width="265" height="265" fill="#000000"/><rect x="795" y="0" width="132.5" height="132.5" fill="#1f1f1f"/><polygon points="927.5,0 927.5,132.5 795,132.5" fill="#161616"/><rect x="927.5" y="0" width="132.5" height="132.5" fill="#000000"/><polygon points="927.5,0 1060,132.5 927.5,132.5" fill="#000000"/><rect x="795" y="132.5" width="132.5" height="132.5" fill="#000000"/><polygon points="795,132.5 927.5,132.5 927.5,265" fill="#000000"/><rect x="927.5" y="132.5" width="132.5" height="132.5" fill="#000000"/><polygon points="927.5,132.5 1060,132.5 927.5,265" fill="#141414"/><rect x="1060" y="0" width="265" height="265" fill="#000000"/><polygon points="1060,0 1325,0 1325,265" fill="#000000"/><rect x="0" y="265" width="265" height="265" fill="#000000"/><rect x="0" y="265" width="132.5" height="132.5" fill="#000000"/><circle cx="66.25" cy="331.25" r="66.25" fill="#000000"/><rect x="132.5" y="265" width="132.5" height="132.5" fill="#000000"/><rect x="132.5" y="265" width="132.5" height="132.5" fill="#000000"/><rect x="0" y="397.5" width="132.5" height="132.5" fill="#151515"/><circle cx="66.25" cy="463.75" r="66.25" fill="#0d0d0d"/><rect x="132.5" y="397.5" width="132.5" height="132.5" fill="#090909"/><rect x="132.5" y="397.5" width="132.5" height="132.5" fill="#000000"/><rect x="265" y="265" width="265" height="265" fill="#000000"/><rect x="265" y="265" width="132.5" height="132.5" fill="#000000"/><path d="M 265 397.5 A 132.5 132.5 0 0 1 397.5 265 L 397.5 298.125 A 99.375 99.375 0 0 0 298.125 397.5" fill="#000000"/><rect x="397.5" y="265" width="132.5" height="132.5" fill="#000000"/><path d="M 397.5 265 A 132.5 132.5 0 0 1 530 397.5 L 496.875 397.5 A 99.375 99.375 0 0 0 397.5 298.125" fill="#000000"/><rect x="265" y="397.5" width="132.5" height="132.5" fill="#000000"/><path d="M 265 397.5 A 132.5 132.5 0 0 0 397.5 530 L 397.5 496.875 A 99.375 99.375 0 0 1 298.125 397.5" fill="#000000"/><rect x="397.5" y="397.5" width="132.5" height="132.5" fill="#181818"/><path d="M 397.5 530 A 132.5 132.5 0 0 0 530 397.5 L 496.875 397.5 A 99.375 99.375 0 0 1 397.5 496.875" fill="#020202"/><rect x="530" y="265" width="265" height="265" fill="#000000"/><rect x="530" y="265" width="132.5" height="132.5" fill="#191919"/><circle cx="596.25" cy="331.25" r="66.25" fill="#1d1d1d"/><rect x="662.5" y="265" width="132.5" height="132.5" fill="#000000"/><rect x="662.5" y="265" width="132.5" height="132.5" fill="#040404"/><rect x="530" y="397.5" width="132.5" height="132.5" fill="#070707"/><circle cx="596.25" cy="463.75" r="66.25" fill="#000000"/><rect x="662.5" y="397.5" width="132.5" height="132.5" fill="#000000"/><rect x="662.5" y="397.5" width="132.5" height="132.5" fill="#000000"/><rect x="795" y="265" width="265" height="265" fill="#161616"/><rect x="795" y="265" width="265" height="265" fill="#000000"/><rect x="1060" y="265" width="265" height="265" fill="#000000"/><rect x="1060" y="265" width="132.5" height="132.5" fill="#000000"/><path d="M 1060 397.5 A 132.5 132.5 0 0 1 1192.5 265 L 1192.5 298.125 A 99.375 99.375 0 0 0 1093.125 397.5" fill="#000000"/><rect x="1192.5" y="265" width="132.5" height="132.5" fill="#1b1b1b"/><path d="M 1192.5 265 A 132.5 132.5 0 0 1 1325 397.5 L 1291.875 397.5 A 99.375 99.375 0 0 0 1192.5 298.125" fill="#000000"/><rect x="1060" y="397.5" width="132.5" height="132.5" fill="#080808"/><path d="M 1060 397.5 A 132.5 132.5 0 0 0 1192.5 530 L 1192.5 496.875 A 99.375 99.375 0 0 1 1093.125 397.5" fill="#000000"/><rect x="1192.5" y="397.5" width="132.5" height="132.5" fill="#1e1e1e"/><path d="M 1192.5 530 A 132.5 132.5 0 0 0 1325 397.5 L 1291.875 397.5 A 99.375 99.375 0 0 1 1192.5 496.875" fill="#000000"/><rect x="0" y="530" width="265" height="265" fill="#000000"/><rect x="0" y="530" width="132.5" height="132.5" fill="#000000"/><path d="M 0 662.5 A 132.5 132.5 0 0 0 132.5 530 L 0 530" fill="#000000"/><rect x="132.5" y="530" width="132.5" height="132.5" fill="#111111"/><path d="M 132.5 530 A 132.5 132.5 0 0 0 265 662.5 L 265 530" fill="#1b1b1b"/><rect x="0" y="662.5" width="132.5" height="132.5" fill="#0c0c0c"/><path d="M 0 662.5 A 132.5 132.5 0 0 1 132.5 795 L 0 795" fill="#0b0b0b"/><rect x="132.5" y="662.5" width="132.5" height="132.5" fill="#080808"/><path d="M 132.5 795 A 132.5 132.5 0 0 1  265 662.5 L 265 795" fill="#1b1b1b"/><rect x="265" y="530" width="265" height="265" fill="#1b1b1b"/><polygon points="265,530 530,530 265,795" fill="#151515"/><rect x="530" y="530" width="265" height="265" fill="#000000"/><path d="M 530 530 A 265 265 0 0 1  795 795 L 530 530 A 265 265 0 0 0 795 795" fill="#000000"/><rect x="795" y="530" width="265" height="265" fill="#000000"/><rect x="795" y="530" width="132.5" height="132.5" fill="#000000"/><path d="M 795 530 A 132.5 132.5 0 0 1 927.5 662.5 L 795 662.5" fill="#000000"/><rect x="927.5" y="530" width="132.5" height="132.5" fill="#000000"/><path d="M 927.5 662.5 A 132.5 132.5 0 0 1  1060 530 L 1060 662.5" fill="#000000"/><rect x="795" y="662.5" width="132.5" height="132.5" fill="#000000"/><path d="M 795 795 A 132.5 132.5 0 0 0 927.5 662.5 L 795 662.5" fill="#1d1d1d"/><rect x="927.5" y="662.5" width="132.5" height="132.5" fill="#1a1a1a"/><path d="M 927.5 662.5 A 132.5 132.5 0 0 0 1060 795 L 1060 662.5" fill="#181818"/><rect x="1060" y="530" width="265" height="265" fill="#000000"/><rect x="1060" y="530" width="132.5" height="132.5" fill="#030303"/><polygon points="1192.5,530 1192.5,662.5 1060,662.5" fill="#0c0c0c"/><rect x="1192.5" y="530" width="132.5" height="132.5" fill="#000000"/><polygon points="1192.5,530 1325,662.5 1192.5,662.5" fill="#000000"/><rect x="1060" y="662.5" width="132.5" height="132.5" fill="#151515"/><polygon points="1060,662.5 1192.5,662.5 1192.5,795" fill="#0b0b0b"/><rect x="1192.5" y="662.5" width="132.5" height="132.5" fill="#000000"/><polygon points="1192.5,662.5 1325,662.5 1192.5,795" fill="#171717"/></g></svg>