<?xml version="1.0" standalone="no"?><svg xmlns:xlink="http://www.w3.org/1999/xlink" xmlns="http://www.w3.org/2000/svg" viewBox="0 0 1000 600" preserveAspectRatio="xMaxYMax slice"><g transform="scale(0.7547169811320755)"><rect x="0" y="0" width="1325" height="795" fill="#000000"/><rect x="0" y="0" width="265" height="265" fill="#010101"/><rect x="0" y="0" width="265" height="265" fill="#111315"/><rect x="265" y="0" width="265" height="265" fill="#050606"/><polygon points="265,0 530,0 530,265" fill="#030404"/><rect x="530" y="0" width="265" height="265" fill="#000000"/><rect x="530" y="0" width="132.5" height="132.5" fill="#131517"/><circle cx="596.25" cy="66.25" r="66.25" fill="#0f1012"/><rect x="662.5" y="0" width="132.5" height="132.5" fill="#1f2226"/><rect x="662.5" y="0" width="132.5" height="132.5" fill="#121417"/><rect x="530" y="132.5" width="132.5" height="132.5" fill="#070809"/><circle cx="596.25" cy="198.75" r="66.25" fill="#181b1e"/><rect x="662.5" y="132.5" width="132.5" height="132.5" fill="#131517"/><rect x="662.5" y="132.5" width="132.5" height="132.5" fill="#181b1e"/><rect x="795" y="0" width="265" height="265" fill="#000000"/><rect x="795" y="0" width="132.5" height="132.5" fill="#22262a"/><path d="M 795 0 A 132.5 132.5 0 0 1 927.5 132.5 L 795 132.5" fill="#101214"/><rect x="927.5" y="0" width="132.5" height="132.5" fill="#1e2225"/><path d="M 927.5 132.5 A 132.5 132.5 0 0 1  1060 0 L 1060 132.5" fill="#131618"/><rect x="795" y="132.5" width="132.5" height="132.5" fill="#30363b"/><path d="M 795 265 A 132.5 132.5 0 0 0 927.5 132.5 L 795 132.5" fill="#060708"/><rect x="927.5" y="132.5" width="132.5" height="132.5" fill="#040404"/><path d="M 927.5 132.5 A 132.5 132.5 0 0 0 1060 265 L 1060 132.5" fill="#22262a"/><rect x="1060" y="0" width="265" height="265" fill="#111315"/><path d="M 1060 265 A 265 265 0 0 1  1325 0 L 1325 265" fill="#08090a"/><rect x="0" y="265" width="265" height="265" fill="#000000"/><rect x="0" y="265" width="132.5" height="132.5" fill="#31373d"/><circle cx="66.25" cy="331.25" r="66.25" fill="#2c3137"/><rect x="132.5" y="265" width="132.5" height="132.5" fill="#08090a"/><rect x="132.5" y="265" width="132.5" height="132.5" fill="#121416"/><rect x="0" y="397.5" width="132.5" height="132.5" fill="#24282d"/><circle cx="66.25" cy="463.75" r="66.25" fill="#070809"/><rect x="132.5" y="397.5" width="132.5" height="132.5" fill="#090a0b"/><rect x="132.5" y="397.5" width="132.5" height="132.5" fill="#1a1d20"/><rect x="265" y="265" width="265" height="265" fill="#000000"/><rect x="265" y="265" width="132.5" height="132.5" fill="#1d2124"/><path d="M 265 397.5 A 132.5 132.5 0 0 1  397.5 265 L 397.5 397.5" fill="#0c0e0f"/><rect x="397.5" y="265" width="132.5" height="132.5" fill="#1a1d20"/><path d="M 397.5 265 A 132.5 132.5 0 0 1 530 397.5 L 397.5 397.5" fill="#0d0f10"/><rect x="265" y="397.5" width="132.5" height="132.5" fill="#0b0d0e"/><path d="M 265 397.5 A 132.5 132.5 0 0 0 397.5 530 L 397.5 397.5" fill="#23272b"/><rect x="397.5" y="397.5" width="132.5" height="132.5" fill="#15171a"/><path d="M 397.5 530 A 132.5 132.5 0 0 0 530 397.5 L 397.5 397.5" fill="#08090a"/><rect x="530" y="265" width="265" height="265" fill="#1d2024"/><rect x="530" y="265" width="265" height="265" fill="#121416"/><rect x="795" y="265" width="265" height="265" fill="#181a1d"/><rect x="795" y="265" width="265" height="265" fill="#252a2e"/><rect x="1060" y="265" width="265" height="265" fill="#000000"/><rect x="1060" y="265" width="132.5" height="132.5" fill="#000000"/><path d="M 1060 397.5 A 132.5 132.5 0 0 1 1192.5 265 L 1192.5 298.125 A 99.375 99.375 0 0 0 1093.125 397.5" fill="#030404"/><rect x="1192.5" y="265" width="132.5" height="132.5" fill="#1f2326"/><path d="M 1192.5 265 A 132.5 132.5 0 0 1 1325 397.5 L 1291.875 397.5 A 99.375 99.375 0 0 0 1192.5 298.125" fill="#272b30"/><rect x="1060" y="397.5" width="132.5" height="132.5" fill="#141618"/><path d="M 1060 397.5 A 132.5 132.5 0 0 0 1192.5 530 L 1192.5 496.875 A 99.375 99.375 0 0 1 1093.125 397.5" fill="#0d0f10"/><rect x="1192.5" y="397.5" width="132.5" height="132.5" fill="#282d31"/><path d="M 1192.5 530 A 132.5 132.5 0 0 0 1325 397.5 L 1291.875 397.5 A 99.375 99.375 0 0 1 1192.5 496.875" fill="#0e0f11"/><rect x="0" y="530" width="265" height="265" fill="#000000"/><rect x="0" y="530" width="132.5" height="132.5" fill="#060708"/><path d="M 0 662.5 A 132.5 132.5 0 0 0 132.5 530 L 0 530" fill="#32383d"/><rect x="132.5" y="530" width="132.5" height="132.5" fill="#2e3339"/><path d="M 132.5 530 A 132.5 132.5 0 0 0 265 662.5 L 265 530" fill="#141719"/><rect x="0" y="662.5" width="132.5" height="132.5" fill="#010101"/><path d="M 0 662.5 A 132.5 132.5 0 0 1 132.5 795 L 0 795" fill="#010101"/><rect x="132.5" y="662.5" width="132.5" height="132.5" fill="#30353b"/><path d="M 132.5 795 A 132.5 132.5 0 0 1  265 662.5 L 265 795" fill="#0e1012"/><rect x="265" y="530" width="265" height="265" fill="#000000"/><rect x="265" y="530" width="132.5" height="132.5" fill="#131618"/><polygon points="397.5,530 397.5,662.5 265,662.5" fill="#212528"/><rect x="397.5" y="530" width="132.5" height="132.5" fill="#16181a"/><polygon points="397.5,530 530,662.5 397.5,662.5" fill="#010202"/><rect x="265" y="662.5" width="132.5" height="132.5" fill="#131518"/><polygon points="265,662.5 397.5,662.5 397.5,795" fill="#0d0f11"/><rect x="397.5" y="662.5" width="132.5" height="132.5" fill="#131618"/><polygon points="397.5,662.5 530,662.5 397.5,795" fill="#30353b"/><rect x="530" y="530" width="265" height="265" fill="#090a0b"/><rect x="530" y="530" width="265" height="265" fill="#262b2f"/><rect x="795" y="530" width="265" height="265" fill="#010202"/><path d="M 795 530 A 265 265 0 0 1  1060 795 L 795 530 A 265 265 0 0 0 1060 795" fill="#0c0d0f"/><rect x="1060" y="530" width="265" height="265" fill="#111315"/><polygon points="1060,530 1325,795 1060,795" fill="#0c0d0e"/></g></svg>